<svg xmlns="http://www.w3.org/2000/svg" viewBox="0 0 282.37 279.07"><defs><style>.cls-1{fill:#fff;}.cls-1,.cls-4{stroke:#231f20;stroke-miterlimit:10;stroke-width:0.75px;}.cls-2{fill:#00aeef;}.cls-3,.cls-4{fill:none;}</style></defs><title>vivoo</title><g id="Layer_2" data-name="Layer 2"><g id="Layer_1-2" data-name="Layer 1"><polygon class="cls-1" points="216.36 132.82 193.72 172.04 177.84 199.55 132.37 278.32 86.89 199.55 71.01 172.04 70.92 171.88 9.65 65.77 55.13 65.77 93.65 132.49 93.75 132.66 116.39 171.87 132.37 199.55 170.99 132.66 193.63 93.45 216.27 132.66 216.36 132.82"/><polygon class="cls-2" points="68.89 212.55 36.94 212.55 52.92 184.88 53.01 185.04 68.89 212.55"/><polygon class="cls-2" points="282.37 212.55 236.89 212.55 198.36 145.82 198.27 145.66 175.63 106.45 159.65 78.77 121.03 145.66 98.39 184.87 75.75 145.66 75.65 145.49 98.29 106.27 114.17 78.77 159.65 0 205.13 78.77 221.01 106.27 221.11 106.44 282.37 212.55"/><polygon class="cls-3" points="184.63 93.45 161.99 132.66 123.37 199.55 107.39 171.87 130.03 132.66 168.65 65.77 184.63 93.45"/><polygon class="cls-3" points="184.63 93.45 161.99 132.66 123.37 199.55 107.39 171.87 130.03 132.66 168.65 65.77 184.63 93.45"/><polygon class="cls-1" points="207.36 132.82 184.72 172.04 168.84 199.55 123.37 278.32 77.89 199.55 62.01 172.04 61.92 171.88 0.65 65.77 46.13 65.77 84.65 132.49 84.75 132.66 107.39 171.87 123.37 199.55 161.99 132.66 184.63 93.45 207.27 132.66 207.36 132.82"/><polygon class="cls-3" points="184.63 93.45 161.99 132.66 123.37 199.55 107.39 171.87 130.03 132.66 168.65 65.77 184.63 93.45"/><polygon class="cls-4" points="255.08 65.77 239.11 93.44 239.01 93.27 234.61 85.65 223.13 65.77 255.08 65.77"/><polygon class="cls-3" points="184.63 93.45 161.99 132.66 123.37 199.55 107.39 171.87 130.03 132.66 168.65 65.77 184.63 93.45"/><polygon class="cls-4" points="234.61 85.65 230.11 93.44 230.01 93.27 214.13 65.77 223.13 65.77 234.61 85.65"/></g></g></svg>